<svg width="220" height="100" viewBox="0 0 220 100" fill="none" xmlns="http://www.w3.org/2000/svg">
<path d="M109.69 11.22C110.273 11.2433 111.055 11.2667 112.035 11.29C113.038 11.3133 114.03 11.325 115.01 11.325C116.13 11.325 117.215 11.3133 118.265 11.29C119.315 11.2667 120.062 11.255 120.505 11.255C123.748 11.255 126.175 11.8967 127.785 13.18C129.395 14.4633 130.2 16.12 130.2 18.15C130.2 18.99 130.037 19.8767 129.71 20.81C129.383 21.72 128.823 22.5717 128.03 23.365C127.26 24.135 126.198 24.765 124.845 25.255C123.492 25.745 121.788 25.99 119.735 25.99H116.165V25.29H119.385C120.762 25.29 121.8 24.975 122.5 24.345C123.223 23.715 123.713 22.8867 123.97 21.86C124.25 20.8333 124.39 19.725 124.39 18.535C124.39 16.3183 124.063 14.6617 123.41 13.565C122.757 12.4683 121.637 11.92 120.05 11.92C119.14 11.92 118.545 12.1183 118.265 12.515C118.008 12.9117 117.88 13.7167 117.88 14.93V32.08C117.88 32.99 117.973 33.6667 118.16 34.11C118.347 34.5533 118.708 34.845 119.245 34.985C119.782 35.125 120.575 35.2067 121.625 35.23V36C120.902 35.9767 119.968 35.9533 118.825 35.93C117.682 35.9067 116.48 35.895 115.22 35.895C114.217 35.895 113.237 35.9067 112.28 35.93C111.323 35.9533 110.46 35.9767 109.69 36V35.3C110.437 35.2533 110.997 35.16 111.37 35.02C111.743 34.88 111.988 34.6 112.105 34.18C112.245 33.76 112.315 33.13 112.315 32.29V14.93C112.315 14.0667 112.245 13.4367 112.105 13.04C111.988 12.62 111.732 12.34 111.335 12.2C110.962 12.0367 110.413 11.9433 109.69 11.92V11.22ZM136.182 36.245C135.132 36.245 134.257 36.0467 133.557 35.65C132.857 35.2533 132.343 34.7283 132.017 34.075C131.69 33.3983 131.527 32.6633 131.527 31.87C131.527 30.8667 131.748 30.05 132.192 29.42C132.658 28.79 133.253 28.2767 133.977 27.88C134.7 27.4833 135.458 27.1567 136.252 26.9C137.068 26.6433 137.838 26.3983 138.562 26.165C139.308 25.9083 139.903 25.6167 140.347 25.29C140.813 24.94 141.047 24.4967 141.047 23.96V21.23C141.047 20.6233 140.942 20.0867 140.732 19.62C140.545 19.13 140.242 18.7567 139.822 18.5C139.425 18.2433 138.9 18.115 138.247 18.115C137.78 18.115 137.313 18.185 136.847 18.325C136.38 18.4417 135.995 18.6517 135.692 18.955C136.345 19.1883 136.847 19.55 137.197 20.04C137.57 20.5067 137.757 21.0433 137.757 21.65C137.757 22.4433 137.477 23.0733 136.917 23.54C136.38 24.0067 135.738 24.24 134.992 24.24C134.152 24.24 133.51 23.9833 133.067 23.47C132.647 22.9333 132.437 22.2917 132.437 21.545C132.437 20.8683 132.6 20.3083 132.927 19.865C133.277 19.4217 133.755 19.0017 134.362 18.605C135.015 18.2317 135.797 17.94 136.707 17.73C137.64 17.52 138.643 17.415 139.717 17.415C140.79 17.415 141.758 17.5317 142.622 17.765C143.485 17.975 144.208 18.3717 144.792 18.955C145.328 19.4917 145.678 20.1567 145.842 20.95C146.005 21.72 146.087 22.7 146.087 23.89V33.41C146.087 33.9933 146.145 34.4017 146.262 34.635C146.378 34.845 146.577 34.95 146.857 34.95C147.067 34.95 147.265 34.8917 147.452 34.775C147.662 34.6583 147.883 34.5183 148.117 34.355L148.467 34.95C147.977 35.37 147.405 35.6967 146.752 35.93C146.122 36.14 145.41 36.245 144.617 36.245C143.753 36.245 143.065 36.1283 142.552 35.895C142.038 35.6383 141.665 35.3 141.432 34.88C141.222 34.46 141.117 33.97 141.117 33.41C140.557 34.2967 139.88 34.9967 139.087 35.51C138.293 36 137.325 36.245 136.182 36.245ZM138.667 34.005C139.133 34.005 139.553 33.9 139.927 33.69C140.323 33.4567 140.697 33.0833 141.047 32.57V25.395C140.837 25.745 140.545 26.06 140.172 26.34C139.798 26.62 139.402 26.9117 138.982 27.215C138.562 27.495 138.153 27.81 137.757 28.16C137.383 28.51 137.08 28.9417 136.847 29.455C136.613 29.9683 136.497 30.5867 136.497 31.31C136.497 32.22 136.695 32.8967 137.092 33.34C137.488 33.7833 138.013 34.005 138.667 34.005ZM166.897 17.52V32.185C166.897 33.235 167.06 34.0167 167.387 34.53C167.714 35.02 168.297 35.265 169.137 35.265V36C168.414 35.93 167.69 35.895 166.967 35.895C165.987 35.895 165.077 35.93 164.237 36C163.397 36.07 162.604 36.1983 161.857 36.385V33.235C161.297 34.4017 160.515 35.2417 159.512 35.755C158.532 36.245 157.435 36.49 156.222 36.49C155.242 36.49 154.449 36.3617 153.842 36.105C153.235 35.8483 152.757 35.5217 152.407 35.125C152.01 34.6817 151.73 34.0983 151.567 33.375C151.404 32.6517 151.322 31.7183 151.322 30.575V21.72C151.322 20.67 151.159 19.9 150.832 19.41C150.529 18.8967 149.945 18.64 149.082 18.64V17.905C149.829 17.975 150.552 18.01 151.252 18.01C152.232 18.01 153.142 17.975 153.982 17.905C154.845 17.8117 155.639 17.6833 156.362 17.52V32.01C156.362 32.5933 156.409 33.1067 156.502 33.55C156.619 33.9933 156.829 34.3433 157.132 34.6C157.435 34.8333 157.879 34.95 158.462 34.95C159.092 34.95 159.652 34.775 160.142 34.425C160.655 34.075 161.064 33.5967 161.367 32.99C161.694 32.36 161.857 31.66 161.857 30.89V21.72C161.857 20.67 161.694 19.9 161.367 19.41C161.064 18.8967 160.48 18.64 159.617 18.64V17.905C160.364 17.975 161.087 18.01 161.787 18.01C162.767 18.01 163.677 17.975 164.517 17.905C165.38 17.8117 166.174 17.6833 166.897 17.52ZM177.623 17.415C178.603 17.415 179.454 17.5433 180.178 17.8C180.924 18.0333 181.461 18.2667 181.788 18.5C182.581 19.0367 183.071 18.6867 183.258 17.45H183.993C183.946 18.1033 183.911 18.9083 183.888 19.865C183.864 20.7983 183.853 22.0467 183.853 23.61H183.118C183.001 22.7467 182.779 21.895 182.453 21.055C182.126 20.215 181.648 19.5267 181.018 18.99C180.411 18.4533 179.618 18.185 178.638 18.185C177.961 18.185 177.389 18.3833 176.923 18.78C176.456 19.1533 176.223 19.7017 176.223 20.425C176.223 21.125 176.433 21.7433 176.853 22.28C177.273 22.7933 177.809 23.295 178.463 23.785C179.139 24.2517 179.839 24.7533 180.563 25.29C181.333 25.8733 182.033 26.4567 182.663 27.04C183.293 27.6 183.794 28.2183 184.168 28.895C184.541 29.5717 184.728 30.3767 184.728 31.31C184.728 32.36 184.424 33.2817 183.818 34.075C183.211 34.845 182.406 35.44 181.403 35.86C180.423 36.28 179.326 36.49 178.113 36.49C177.413 36.49 176.783 36.42 176.223 36.28C175.686 36.14 175.219 35.965 174.823 35.755C174.519 35.615 174.228 35.4867 173.948 35.37C173.691 35.23 173.446 35.1133 173.213 35.02C172.979 34.95 172.769 35.0317 172.583 35.265C172.419 35.4983 172.291 35.825 172.198 36.245H171.463C171.509 35.4983 171.544 34.5883 171.568 33.515C171.591 32.4417 171.603 31.0183 171.603 29.245H172.338C172.478 30.505 172.734 31.625 173.108 32.605C173.481 33.5617 173.983 34.32 174.613 34.88C175.266 35.4167 176.083 35.685 177.063 35.685C177.459 35.685 177.844 35.6033 178.218 35.44C178.591 35.2767 178.894 35.0083 179.128 34.635C179.384 34.2617 179.513 33.7833 179.513 33.2C179.513 32.1733 179.174 31.3217 178.498 30.645C177.844 29.9683 177.004 29.2333 175.978 28.44C175.231 27.8333 174.519 27.2383 173.843 26.655C173.189 26.0483 172.653 25.395 172.233 24.695C171.813 23.9717 171.603 23.155 171.603 22.245C171.603 21.195 171.883 20.3083 172.443 19.585C173.003 18.8617 173.738 18.325 174.648 17.975C175.581 17.6017 176.573 17.415 177.623 17.415ZM195.89 17.415C197.943 17.415 199.553 18.0217 200.72 19.235C201.886 20.4483 202.47 22.4317 202.47 25.185H190.955L190.885 24.52H198.06C198.083 23.3767 198.013 22.3267 197.85 21.37C197.686 20.39 197.43 19.6083 197.08 19.025C196.73 18.4417 196.263 18.15 195.68 18.15C194.863 18.15 194.163 18.6633 193.58 19.69C193.02 20.7167 192.681 22.42 192.565 24.8L192.67 25.01C192.646 25.29 192.623 25.5817 192.6 25.885C192.6 26.1883 192.6 26.5033 192.6 26.83C192.6 28.44 192.821 29.7467 193.265 30.75C193.731 31.7533 194.315 32.4883 195.015 32.955C195.715 33.3983 196.426 33.62 197.15 33.62C197.64 33.62 198.141 33.55 198.655 33.41C199.191 33.2467 199.728 32.9667 200.265 32.57C200.801 32.15 201.303 31.5667 201.77 30.82L202.4 31.03C202.12 31.9167 201.676 32.78 201.07 33.62C200.463 34.46 199.693 35.1483 198.76 35.685C197.826 36.2217 196.706 36.49 195.4 36.49C193.813 36.49 192.413 36.1517 191.2 35.475C189.986 34.7983 189.03 33.7717 188.33 32.395C187.653 31.0183 187.315 29.2683 187.315 27.145C187.315 24.975 187.676 23.1667 188.4 21.72C189.146 20.2733 190.161 19.2 191.445 18.5C192.751 17.7767 194.233 17.415 195.89 17.415ZM116.48 59.52V80.87C116.48 81.9667 116.76 82.69 117.32 83.04C117.88 83.4133 118.65 83.6 119.63 83.6V84.335C119.023 84.3117 118.183 84.2767 117.11 84.23C116.06 84.2067 114.94 84.195 113.75 84.195C112.887 84.195 112.035 84.2067 111.195 84.23C110.378 84.2767 109.76 84.3117 109.34 84.335V83.6C110.11 83.6 110.647 83.4367 110.95 83.11C111.277 82.7833 111.44 82.1533 111.44 81.22V63.72C111.44 62.67 111.277 61.9 110.95 61.41C110.623 60.8967 110.04 60.64 109.2 60.64V59.905C109.947 59.975 110.67 60.01 111.37 60.01C112.327 60.01 113.237 59.975 114.1 59.905C114.963 59.8117 115.757 59.6833 116.48 59.52ZM121.905 59.415C123.095 59.415 124.157 59.7417 125.09 60.395C126.023 61.025 126.77 61.9933 127.33 63.3C127.89 64.5833 128.17 66.1933 128.17 68.13C128.17 69.8333 127.972 71.3267 127.575 72.61C127.202 73.8933 126.653 74.9783 125.93 75.865C125.23 76.7283 124.378 77.3817 123.375 77.825C122.395 78.2683 121.287 78.49 120.05 78.49C119.14 78.49 118.312 78.3267 117.565 78C116.818 77.6967 116.247 77.2533 115.85 76.67L116.2 76.215C116.433 76.635 116.76 76.9617 117.18 77.195C117.623 77.4283 118.125 77.545 118.685 77.545C119.735 77.545 120.563 77.195 121.17 76.495C121.777 75.7717 122.208 74.7683 122.465 73.485C122.745 72.1783 122.885 70.6267 122.885 68.83C122.885 66.8233 122.757 65.2483 122.5 64.105C122.243 62.9617 121.893 62.145 121.45 61.655C121.007 61.165 120.47 60.92 119.84 60.92C119 60.92 118.23 61.2467 117.53 61.9C116.853 62.5533 116.468 63.4867 116.375 64.7L116.2 63.475C116.62 62.145 117.332 61.1417 118.335 60.465C119.362 59.765 120.552 59.415 121.905 59.415ZM147.756 59.52V74.185C147.756 75.235 147.92 76.0167 148.246 76.53C148.573 77.02 149.156 77.265 149.996 77.265V78C149.273 77.93 148.55 77.895 147.826 77.895C146.846 77.895 145.936 77.93 145.096 78C144.256 78.07 143.463 78.1983 142.716 78.385V75.235C142.156 76.4017 141.375 77.2417 140.371 77.755C139.391 78.245 138.295 78.49 137.081 78.49C136.101 78.49 135.308 78.3617 134.701 78.105C134.095 77.8483 133.616 77.5217 133.266 77.125C132.87 76.6817 132.59 76.0983 132.426 75.375C132.263 74.6517 132.181 73.7183 132.181 72.575V63.72C132.181 62.67 132.018 61.9 131.691 61.41C131.388 60.8967 130.805 60.64 129.941 60.64V59.905C130.688 59.975 131.411 60.01 132.111 60.01C133.091 60.01 134.001 59.975 134.841 59.905C135.705 59.8117 136.498 59.6833 137.221 59.52V74.01C137.221 74.5933 137.268 75.1067 137.361 75.55C137.478 75.9933 137.688 76.3433 137.991 76.6C138.295 76.8333 138.738 76.95 139.321 76.95C139.951 76.95 140.511 76.775 141.001 76.425C141.515 76.075 141.923 75.5967 142.226 74.99C142.553 74.36 142.716 73.66 142.716 72.89V63.72C142.716 62.67 142.553 61.9 142.226 61.41C141.923 60.8967 141.34 60.64 140.476 60.64V59.905C141.223 59.975 141.946 60.01 142.646 60.01C143.626 60.01 144.536 59.975 145.376 59.905C146.24 59.8117 147.033 59.6833 147.756 59.52ZM164.572 59.415C165.552 59.415 166.345 59.5433 166.952 59.8C167.582 60.0333 168.072 60.36 168.422 60.78C168.795 61.2233 169.064 61.795 169.227 62.495C169.414 63.195 169.507 64.14 169.507 65.33V74.745C169.507 75.725 169.67 76.39 169.997 76.74C170.347 77.09 170.93 77.265 171.747 77.265V78C171.304 77.9767 170.639 77.9533 169.752 77.93C168.865 77.8833 167.99 77.86 167.127 77.86C166.24 77.86 165.365 77.8833 164.502 77.93C163.662 77.9533 163.02 77.9767 162.577 78V77.265C163.277 77.265 163.767 77.09 164.047 76.74C164.327 76.39 164.467 75.725 164.467 74.745V63.86C164.467 63.2767 164.409 62.775 164.292 62.355C164.175 61.9117 163.965 61.5733 163.662 61.34C163.359 61.0833 162.904 60.955 162.297 60.955C161.667 60.955 161.084 61.13 160.547 61.48C160.034 61.83 159.614 62.32 159.287 62.95C158.984 63.5567 158.832 64.245 158.832 65.015V74.745C158.832 75.725 158.972 76.39 159.252 76.74C159.555 77.09 160.045 77.265 160.722 77.265V78C160.302 77.9767 159.684 77.9533 158.867 77.93C158.074 77.8833 157.245 77.86 156.382 77.86C155.495 77.86 154.585 77.8833 153.652 77.93C152.719 77.9533 152.019 77.9767 151.552 78V77.265C152.369 77.265 152.94 77.09 153.267 76.74C153.617 76.39 153.792 75.725 153.792 74.745V63.72C153.792 62.67 153.629 61.9 153.302 61.41C152.999 60.8967 152.415 60.64 151.552 60.64V59.905C152.299 59.975 153.022 60.01 153.722 60.01C154.702 60.01 155.612 59.975 156.452 59.905C157.315 59.8117 158.109 59.6833 158.832 59.52V62.67C159.415 61.48 160.209 60.64 161.212 60.15C162.215 59.66 163.335 59.415 164.572 59.415ZM180.156 50.595V74.745C180.156 75.725 180.308 76.39 180.611 76.74C180.938 77.09 181.486 77.265 182.256 77.265V78C181.813 77.9767 181.159 77.9533 180.296 77.93C179.456 77.8833 178.593 77.86 177.706 77.86C176.796 77.86 175.874 77.8833 174.941 77.93C174.031 77.9533 173.343 77.9767 172.876 78V77.265C173.693 77.265 174.264 77.09 174.591 76.74C174.941 76.39 175.116 75.725 175.116 74.745V54.795C175.116 53.745 174.953 52.975 174.626 52.485C174.323 51.9717 173.739 51.715 172.876 51.715V50.98C173.623 51.05 174.346 51.085 175.046 51.085C176.003 51.085 176.913 51.05 177.776 50.98C178.639 50.8867 179.433 50.7583 180.156 50.595ZM191.566 59.905V60.605C190.843 60.745 190.119 61.0483 189.396 61.515C188.673 61.9817 187.938 62.5767 187.191 63.3L184.496 66.1L184.846 65.435L190.831 75.445C191.088 75.865 191.356 76.2383 191.636 76.565C191.916 76.8917 192.254 77.125 192.651 77.265V78C192.301 77.9767 191.776 77.9533 191.076 77.93C190.376 77.8833 189.676 77.86 188.976 77.86C188.113 77.86 187.249 77.8833 186.386 77.93C185.523 77.9533 184.881 77.9767 184.461 78V77.265C184.928 77.265 185.243 77.16 185.406 76.95C185.569 76.7167 185.546 76.425 185.336 76.075L181.871 69.81C181.591 69.3667 181.311 69.0867 181.031 68.97C180.774 68.83 180.424 68.7483 179.981 68.725V68.06C180.471 68.0133 180.891 67.9317 181.241 67.815C181.614 67.6983 181.953 67.4767 182.256 67.15L184.916 64.56C185.709 63.8133 186.106 63.1483 186.106 62.565C186.106 61.9817 185.849 61.515 185.336 61.165C184.846 60.815 184.193 60.6283 183.376 60.605V59.905C184.029 59.9283 184.741 59.9517 185.511 59.975C186.281 59.9983 186.934 60.01 187.471 60.01C187.938 60.01 188.428 60.01 188.941 60.01C189.478 59.9867 189.979 59.975 190.446 59.975C190.913 59.9517 191.286 59.9283 191.566 59.905ZM200.63 54.165V59.905H204.76V60.605H200.63V74.745C200.63 75.445 200.758 75.9467 201.015 76.25C201.271 76.53 201.656 76.67 202.17 76.67C202.59 76.67 203.01 76.5183 203.43 76.215C203.85 75.8883 204.223 75.34 204.55 74.57L205.145 74.885C204.771 75.935 204.2 76.7983 203.43 77.475C202.683 78.1517 201.656 78.49 200.35 78.49C199.58 78.49 198.903 78.385 198.32 78.175C197.736 77.9883 197.246 77.6967 196.85 77.3C196.336 76.7867 195.998 76.1567 195.835 75.41C195.671 74.64 195.59 73.6483 195.59 72.435V60.605H192.65V59.905H195.59V55.285C196.57 55.285 197.468 55.2033 198.285 55.04C199.125 54.8533 199.906 54.5617 200.63 54.165Z" fill="black"/>
<path d="M19.7185 5.01718H76.9806C80.7357 4.70537 93.2485 10.6882 94.3651 19.3345C94.4773 39.1019 94.6021 59.493 94.3651 69.1072C94.8953 69.0292 94.39 78.3121 80.8355 80.7351V94L66.4139 82.4111L19.7185 82.7488C19.7185 82.7488 3.28845 77.3052 2.67715 68.7694C2.19061 61.9615 2.883 23.5049 2.67715 22.4006C2.47131 21.2963 7.51761 4.51698 19.7248 5.01068L19.7185 5.01718Z" stroke="black" stroke-width="5" stroke-miterlimit="10"/>
<path d="M67.5 21H54.5V66H67.5V21Z" stroke="black" stroke-width="5" stroke-miterlimit="10"/>
<path d="M40.5 21H27.5V66H40.5V21Z" stroke="black" stroke-width="5" stroke-miterlimit="10"/>
</svg>
